<mxfile host="app.diagrams.net" modified="2021-07-04T07:02:13.626Z" agent="5.0 (Windows)" etag="oiX6EeSW6ISBMwMS1kOA" version="14.8.4" type="github">
  <diagram id="keg2CX9DIcpb7IM0dol9" name="Page-1">
    <mxGraphModel dx="1038" dy="536" grid="1" gridSize="10" guides="1" tooltips="1" connect="0" arrows="1" fold="1" page="1" pageScale="1" pageWidth="1169" pageHeight="827" background="#FFFFFF" math="0" shadow="0">
      <root>
        <mxCell id="0" />
        <mxCell id="1" parent="0" />
        <mxCell id="dAfpQrAZfxaeznC9TF4z-71" value="" style="whiteSpace=wrap;html=1;aspect=fixed;" vertex="1" parent="1">
          <mxGeometry x="130" y="120" width="840" height="840" as="geometry" />
        </mxCell>
        <mxCell id="dAfpQrAZfxaeznC9TF4z-72" value="" style="whiteSpace=wrap;html=1;aspect=fixed;" vertex="1" parent="1">
          <mxGeometry x="250" y="230" width="610" height="610" as="geometry" />
        </mxCell>
        <mxCell id="dAfpQrAZfxaeznC9TF4z-73" value="Choose Service" style="ellipse;whiteSpace=wrap;html=1;" vertex="1" parent="1">
          <mxGeometry x="325" y="375" width="120" height="80" as="geometry" />
        </mxCell>
        <mxCell id="dAfpQrAZfxaeznC9TF4z-74" value="&lt;div&gt;Shipping&lt;/div&gt;" style="ellipse;whiteSpace=wrap;html=1;" vertex="1" parent="1">
          <mxGeometry x="465" y="415" width="60" height="50" as="geometry" />
        </mxCell>
        <mxCell id="dAfpQrAZfxaeznC9TF4z-75" value="Courier" style="ellipse;whiteSpace=wrap;html=1;" vertex="1" parent="1">
          <mxGeometry x="465" y="355" width="60" height="40" as="geometry" />
        </mxCell>
        <mxCell id="dAfpQrAZfxaeznC9TF4z-76" value="Get/Update Service Detials" style="ellipse;whiteSpace=wrap;html=1;" vertex="1" parent="1">
          <mxGeometry x="685" y="625" width="120" height="80" as="geometry" />
        </mxCell>
        <mxCell id="dAfpQrAZfxaeznC9TF4z-77" value="Login" style="ellipse;whiteSpace=wrap;html=1;" vertex="1" parent="1">
          <mxGeometry x="495" y="245" width="120" height="80" as="geometry" />
        </mxCell>
        <mxCell id="dAfpQrAZfxaeznC9TF4z-78" value="Autenticate from metamask" style="ellipse;whiteSpace=wrap;html=1;" vertex="1" parent="1">
          <mxGeometry x="705" y="285" width="90" height="70" as="geometry" />
        </mxCell>
        <mxCell id="dAfpQrAZfxaeznC9TF4z-79" value="&lt;div&gt;Track/Update Service status&lt;/div&gt;" style="ellipse;whiteSpace=wrap;html=1;" vertex="1" parent="1">
          <mxGeometry x="475" y="485" width="120" height="80" as="geometry" />
        </mxCell>
        <mxCell id="dAfpQrAZfxaeznC9TF4z-80" value="&lt;div&gt;Add Quote&lt;/div&gt;" style="ellipse;whiteSpace=wrap;html=1;" vertex="1" parent="1">
          <mxGeometry x="495" y="625" width="120" height="80" as="geometry" />
        </mxCell>
        <mxCell id="dAfpQrAZfxaeznC9TF4z-81" value="&lt;div&gt;Set/Get Quote status&lt;/div&gt;" style="ellipse;whiteSpace=wrap;html=1;" vertex="1" parent="1">
          <mxGeometry x="645" y="495" width="120" height="80" as="geometry" />
        </mxCell>
        <mxCell id="dAfpQrAZfxaeznC9TF4z-82" value="&lt;div&gt;Review Quote&lt;/div&gt;" style="ellipse;whiteSpace=wrap;html=1;" vertex="1" parent="1">
          <mxGeometry x="635" y="365" width="120" height="80" as="geometry" />
        </mxCell>
        <mxCell id="dAfpQrAZfxaeznC9TF4z-83" value="Set service information" style="ellipse;whiteSpace=wrap;html=1;" vertex="1" parent="1">
          <mxGeometry x="405" y="735" width="120" height="80" as="geometry" />
        </mxCell>
        <mxCell id="dAfpQrAZfxaeznC9TF4z-84" value="Set Address information" style="ellipse;whiteSpace=wrap;html=1;" vertex="1" parent="1">
          <mxGeometry x="555" y="735" width="120" height="80" as="geometry" />
        </mxCell>
        <mxCell id="dAfpQrAZfxaeznC9TF4z-85" value="&lt;div&gt;User&lt;/div&gt;&lt;div&gt;&lt;br&gt;&lt;/div&gt;" style="shape=umlActor;verticalLabelPosition=bottom;verticalAlign=top;html=1;outlineConnect=0;" vertex="1" parent="1">
          <mxGeometry x="185" y="455" width="30" height="60" as="geometry" />
        </mxCell>
        <mxCell id="dAfpQrAZfxaeznC9TF4z-86" value="Admin" style="shape=umlActor;verticalLabelPosition=bottom;verticalAlign=top;html=1;outlineConnect=0;" vertex="1" parent="1">
          <mxGeometry x="885" y="455" width="30" height="60" as="geometry" />
        </mxCell>
        <mxCell id="dAfpQrAZfxaeznC9TF4z-87" value="" style="endArrow=none;html=1;entryX=0;entryY=0.5;entryDx=0;entryDy=0;" edge="1" parent="1" source="dAfpQrAZfxaeznC9TF4z-85" target="dAfpQrAZfxaeznC9TF4z-77">
          <mxGeometry width="50" height="50" relative="1" as="geometry">
            <mxPoint x="200" y="455" as="sourcePoint" />
            <mxPoint x="250" y="405" as="targetPoint" />
            <Array as="points">
              <mxPoint x="345" y="365" />
            </Array>
          </mxGeometry>
        </mxCell>
        <mxCell id="dAfpQrAZfxaeznC9TF4z-88" value="" style="endArrow=none;html=1;" edge="1" parent="1">
          <mxGeometry width="50" height="50" relative="1" as="geometry">
            <mxPoint x="605" y="265" as="sourcePoint" />
            <mxPoint x="886" y="475" as="targetPoint" />
            <Array as="points">
              <mxPoint x="795" y="265" />
            </Array>
          </mxGeometry>
        </mxCell>
        <mxCell id="dAfpQrAZfxaeznC9TF4z-89" value="&lt;div&gt;&amp;lt;&amp;lt;include&amp;gt;&amp;gt;&lt;/div&gt;" style="endArrow=open;endSize=12;dashed=1;html=1;entryX=0.029;entryY=0.333;entryDx=0;entryDy=0;entryPerimeter=0;" edge="1" parent="1" target="dAfpQrAZfxaeznC9TF4z-78">
          <mxGeometry width="160" relative="1" as="geometry">
            <mxPoint x="615" y="295" as="sourcePoint" />
            <mxPoint x="745" y="295" as="targetPoint" />
          </mxGeometry>
        </mxCell>
        <mxCell id="dAfpQrAZfxaeznC9TF4z-90" value="" style="endArrow=none;html=1;" edge="1" parent="1">
          <mxGeometry width="50" height="50" relative="1" as="geometry">
            <mxPoint x="755" y="415" as="sourcePoint" />
            <mxPoint x="885" y="475" as="targetPoint" />
          </mxGeometry>
        </mxCell>
        <mxCell id="dAfpQrAZfxaeznC9TF4z-91" value="" style="endArrow=none;html=1;" edge="1" parent="1">
          <mxGeometry width="50" height="50" relative="1" as="geometry">
            <mxPoint x="765" y="545" as="sourcePoint" />
            <mxPoint x="885" y="475" as="targetPoint" />
          </mxGeometry>
        </mxCell>
        <mxCell id="dAfpQrAZfxaeznC9TF4z-92" value="" style="endArrow=none;html=1;entryX=0.5;entryY=1;entryDx=0;entryDy=0;" edge="1" parent="1" target="dAfpQrAZfxaeznC9TF4z-79">
          <mxGeometry width="50" height="50" relative="1" as="geometry">
            <mxPoint x="885" y="475" as="sourcePoint" />
            <mxPoint x="595" y="575" as="targetPoint" />
            <Array as="points">
              <mxPoint x="765" y="585" />
              <mxPoint x="645" y="585" />
            </Array>
          </mxGeometry>
        </mxCell>
        <mxCell id="dAfpQrAZfxaeznC9TF4z-93" value="" style="endArrow=none;html=1;entryX=0;entryY=0.5;entryDx=0;entryDy=0;" edge="1" parent="1" target="dAfpQrAZfxaeznC9TF4z-80">
          <mxGeometry width="50" height="50" relative="1" as="geometry">
            <mxPoint x="215" y="475" as="sourcePoint" />
            <mxPoint x="345" y="595" as="targetPoint" />
          </mxGeometry>
        </mxCell>
        <mxCell id="dAfpQrAZfxaeznC9TF4z-94" value="" style="endArrow=none;html=1;entryX=0.5;entryY=0;entryDx=0;entryDy=0;" edge="1" parent="1" target="dAfpQrAZfxaeznC9TF4z-84">
          <mxGeometry width="50" height="50" relative="1" as="geometry">
            <mxPoint x="485" y="735" as="sourcePoint" />
            <mxPoint x="535" y="685" as="targetPoint" />
            <Array as="points">
              <mxPoint x="545" y="735" />
            </Array>
          </mxGeometry>
        </mxCell>
        <mxCell id="dAfpQrAZfxaeznC9TF4z-95" value="" style="endArrow=classic;html=1;entryX=0.5;entryY=1;entryDx=0;entryDy=0;" edge="1" parent="1" target="dAfpQrAZfxaeznC9TF4z-80">
          <mxGeometry width="50" height="50" relative="1" as="geometry">
            <mxPoint x="545" y="735" as="sourcePoint" />
            <mxPoint x="585" y="595" as="targetPoint" />
          </mxGeometry>
        </mxCell>
        <mxCell id="dAfpQrAZfxaeznC9TF4z-96" value="" style="endArrow=none;html=1;exitX=1;exitY=0;exitDx=0;exitDy=0;" edge="1" parent="1" source="dAfpQrAZfxaeznC9TF4z-80">
          <mxGeometry width="50" height="50" relative="1" as="geometry">
            <mxPoint x="625" y="615" as="sourcePoint" />
            <mxPoint x="675" y="565" as="targetPoint" />
          </mxGeometry>
        </mxCell>
        <mxCell id="dAfpQrAZfxaeznC9TF4z-97" value="" style="endArrow=none;html=1;exitX=0;exitY=0.5;exitDx=0;exitDy=0;" edge="1" parent="1" source="dAfpQrAZfxaeznC9TF4z-74">
          <mxGeometry width="50" height="50" relative="1" as="geometry">
            <mxPoint x="415" y="430" as="sourcePoint" />
            <mxPoint x="465" y="380" as="targetPoint" />
          </mxGeometry>
        </mxCell>
        <mxCell id="dAfpQrAZfxaeznC9TF4z-98" value="" style="endArrow=classic;html=1;entryX=1;entryY=0.5;entryDx=0;entryDy=0;" edge="1" parent="1" target="dAfpQrAZfxaeznC9TF4z-73">
          <mxGeometry width="50" height="50" relative="1" as="geometry">
            <mxPoint x="465" y="405" as="sourcePoint" />
            <mxPoint x="585" y="555" as="targetPoint" />
          </mxGeometry>
        </mxCell>
        <mxCell id="dAfpQrAZfxaeznC9TF4z-99" value="" style="endArrow=none;html=1;entryX=0;entryY=1;entryDx=0;entryDy=0;" edge="1" parent="1" source="dAfpQrAZfxaeznC9TF4z-80" target="dAfpQrAZfxaeznC9TF4z-82">
          <mxGeometry width="50" height="50" relative="1" as="geometry">
            <mxPoint x="535" y="555" as="sourcePoint" />
            <mxPoint x="585" y="505" as="targetPoint" />
          </mxGeometry>
        </mxCell>
        <mxCell id="dAfpQrAZfxaeznC9TF4z-100" value="" style="endArrow=none;html=1;entryX=0.5;entryY=1;entryDx=0;entryDy=0;" edge="1" parent="1" source="dAfpQrAZfxaeznC9TF4z-81" target="dAfpQrAZfxaeznC9TF4z-82">
          <mxGeometry width="50" height="50" relative="1" as="geometry">
            <mxPoint x="535" y="555" as="sourcePoint" />
            <mxPoint x="585" y="505" as="targetPoint" />
          </mxGeometry>
        </mxCell>
        <mxCell id="dAfpQrAZfxaeznC9TF4z-101" value="" style="endArrow=none;html=1;exitX=1;exitY=0.3333333333333333;exitDx=0;exitDy=0;exitPerimeter=0;" edge="1" parent="1" source="dAfpQrAZfxaeznC9TF4z-85">
          <mxGeometry width="50" height="50" relative="1" as="geometry">
            <mxPoint x="275" y="475" as="sourcePoint" />
            <mxPoint x="325" y="425" as="targetPoint" />
          </mxGeometry>
        </mxCell>
        <mxCell id="dAfpQrAZfxaeznC9TF4z-102" value="" style="endArrow=none;html=1;entryX=0.008;entryY=0.488;entryDx=0;entryDy=0;entryPerimeter=0;" edge="1" parent="1" target="dAfpQrAZfxaeznC9TF4z-79">
          <mxGeometry width="50" height="50" relative="1" as="geometry">
            <mxPoint x="215" y="475" as="sourcePoint" />
            <mxPoint x="585" y="505" as="targetPoint" />
            <Array as="points" />
          </mxGeometry>
        </mxCell>
        <mxCell id="dAfpQrAZfxaeznC9TF4z-103" value="" style="endArrow=none;html=1;exitX=0.592;exitY=1;exitDx=0;exitDy=0;exitPerimeter=0;entryX=0.242;entryY=0.1;entryDx=0;entryDy=0;entryPerimeter=0;" edge="1" parent="1" source="dAfpQrAZfxaeznC9TF4z-73" target="dAfpQrAZfxaeznC9TF4z-80">
          <mxGeometry width="50" height="50" relative="1" as="geometry">
            <mxPoint x="535" y="585" as="sourcePoint" />
            <mxPoint x="585" y="535" as="targetPoint" />
            <Array as="points" />
          </mxGeometry>
        </mxCell>
        <mxCell id="dAfpQrAZfxaeznC9TF4z-104" value="" style="endArrow=none;html=1;exitX=0.608;exitY=0;exitDx=0;exitDy=0;exitPerimeter=0;" edge="1" parent="1" source="dAfpQrAZfxaeznC9TF4z-76">
          <mxGeometry width="50" height="50" relative="1" as="geometry">
            <mxPoint x="785" y="645" as="sourcePoint" />
            <mxPoint x="885" y="475" as="targetPoint" />
          </mxGeometry>
        </mxCell>
      </root>
    </mxGraphModel>
  </diagram>
</mxfile>
